<?xml version="1.0" encoding="UTF-8"?>
<svg version="1.1" xmlns="http://www.w3.org/2000/svg" width="512" height="512">
<path d="M0 0 C0.69346527 -0.01036789 1.38693054 -0.02073578 2.10140991 -0.03141785 C4.38714381 -0.05844945 6.67095148 -0.04882881 8.95678711 -0.03637695 C10.5575768 -0.04229178 12.15836206 -0.04954098 13.75914001 -0.05805969 C17.11586523 -0.06993689 20.47192746 -0.06324593 23.82861328 -0.04394531 C28.10016391 -0.02118125 32.36970867 -0.04769999 36.64106083 -0.08900738 C39.95034451 -0.11478425 43.25916197 -0.11195001 46.56851006 -0.10111427 C48.14115648 -0.09964103 49.71384112 -0.10715977 51.28639412 -0.12436485 C62.04612225 -0.22289265 71.61396431 0.90618434 79.94715881 8.51142883 C83.07347795 11.87052958 84.89095676 15.56046988 86.92163086 19.6628418 C88.40049019 19.67164116 88.40049019 19.67164116 89.90922546 19.68061829 C99.25008283 19.73810267 108.59071312 19.81099593 117.93133831 19.89855671 C122.7322029 19.94307702 127.53298619 19.98237237 132.33398438 20.00927734 C136.97665544 20.0354948 141.61901053 20.07602408 146.26148415 20.12602806 C148.02303924 20.14257313 149.78464882 20.15416366 151.54627037 20.1604557 C164.31375795 20.21062364 176.50387389 20.85494097 188.04663086 26.9128418 C188.68511963 27.24509766 189.3236084 27.57735352 189.98144531 27.91967773 C192.3078558 29.14452657 194.61543308 30.40033445 196.92163086 31.6628418 C197.91565918 32.20553711 198.9096875 32.74823242 199.93383789 33.30737305 C212.89647596 40.40849299 225.77798278 47.65360708 238.56298828 55.07006836 C239.36196533 55.53123047 240.16094238 55.99239258 240.98413086 56.4675293 C241.67635742 56.86955566 242.36858398 57.27158203 243.08178711 57.68579102 C247.10626852 59.82299571 250.48399739 59.79260476 254.97241211 59.8046875 C255.68669876 59.80816193 256.40098541 59.81163635 257.13691711 59.81521606 C258.68870262 59.82256685 260.2404986 59.82791585 261.79229736 59.83150673 C264.25720648 59.8386903 266.72191861 59.85437428 269.18676758 59.87284851 C276.19552787 59.92520488 283.20418345 59.97320813 290.21313477 59.98876953 C294.50270102 59.99891664 298.79177535 60.02841595 303.08114624 60.07008934 C304.70759337 60.08231578 306.33411027 60.08753605 307.96060181 60.08529091 C321.6577369 60.07104652 332.65996009 61.86672887 342.92163086 71.6628418 C350.70884667 79.82014311 354.24119917 88.23777787 354.01928711 99.5300293 C354.01223755 100.21895264 354.00518799 100.90787598 353.9979248 101.61767578 C353.97969177 103.29949123 353.95167456 104.98119587 353.92163086 106.6628418 C354.94667725 106.30270996 355.97172363 105.94257813 357.02783203 105.5715332 C379.93301891 97.52987522 402.87428119 89.59904008 425.85913086 81.7878418 C427.03349701 81.388172 428.20786316 80.9885022 429.41781616 80.57672119 C432.76089434 79.43946594 436.10477131 78.30459619 439.44897461 77.1706543 C440.45128113 76.82965698 441.45358765 76.48865967 442.48626709 76.1373291 C443.40973938 75.82493286 444.33321167 75.51253662 445.28466797 75.19067383 C446.08762802 74.91836945 446.89058807 74.64606506 447.71788025 74.36550903 C458.64043486 70.88284578 470.61114621 71.64092471 480.92163086 76.6628418 C489.74468867 82.04109463 495.97884869 89.5062579 499.22241211 99.34643555 C501.62227076 110.72900536 501.19587493 122.61527612 494.92163086 132.6628418 C486.64119757 144.05043961 475.36456051 148.51489054 462.85913086 154.1003418 C461.48113453 154.71908989 460.10320635 155.33798978 458.7253418 155.95703125 C448.08984818 160.72698787 437.41697175 165.41073559 426.73168945 170.06787109 C415.46585537 174.97873049 404.22285599 179.94028802 392.98413086 184.9128418 C377.13131262 191.92563851 361.26870632 198.91555289 345.38842773 205.8659668 C337.35931879 209.38240451 329.3385856 212.91569961 321.33889771 216.49865723 C317.48630819 218.22412014 313.63117743 219.94387102 309.77612305 221.66381836 C307.95230152 222.47972173 306.129809 223.29860421 304.30883789 224.12084961 C266.9207856 241.00125002 229.269439 247.78487309 189.68334961 233.1550293 C171.89853235 226.03735735 155.51334441 214.93225027 139.21850586 204.95581055 C138.59189056 204.57284317 137.96527527 204.18987579 137.31967163 203.79530334 C134.33074088 201.96795622 131.34631043 200.1341712 128.37133789 198.28417969 C119.34774113 192.73218171 110.42083243 188.00449416 100.10913086 185.4128418 C98.88581055 185.09831055 97.66249023 184.7837793 96.40209961 184.4597168 C93.25033865 183.73810149 90.11676923 183.15214323 86.92163086 182.6628418 C86.50913086 183.31510742 86.09663086 183.96737305 85.67163086 184.6394043 C79.52708769 193.93851204 74.24476202 198.48597516 63.35171509 201.05841064 C57.31704579 202.12180789 51.32738963 202.08996299 45.21459961 202.0612793 C43.83604275 202.06330685 42.45748695 202.06622392 41.07893372 202.06997681 C38.21397516 202.07436081 35.3493002 202.06809274 32.484375 202.05395508 C28.8284713 202.03678353 25.17322471 202.04677881 21.51734447 202.06467247 C18.68017175 202.07554832 15.84315326 202.07204806 13.00597572 202.06428909 C11.00806367 202.06134338 9.01014538 202.07037922 7.01225281 202.0796814 C-4.58054027 201.98997364 -4.58054027 201.98997364 -10.07836914 198.6628418 C-12.50679777 195.02019885 -12.36650827 192.3330164 -12.3525238 188.12258911 C-12.35776048 187.34767872 -12.36299716 186.57276832 -12.36839253 185.7743758 C-12.38343206 183.16960047 -12.38409854 180.5650209 -12.38476562 177.96020508 C-12.39238444 176.09597439 -12.40081145 174.23174686 -12.4099884 172.36752319 C-12.43196725 167.29727286 -12.4407368 162.22708285 -12.44581485 157.15679026 C-12.4494543 153.99062665 -12.45569219 150.82447894 -12.46281624 147.65832138 C-12.48732211 136.61701511 -12.50036517 125.5757559 -12.50390625 114.53442383 C-12.50754282 104.23524806 -12.53744408 93.93637007 -12.57931083 83.63728535 C-12.61397577 74.80069138 -12.62945403 65.96419628 -12.63015229 57.12753475 C-12.63094637 51.84723927 -12.6397454 46.56724699 -12.66814995 41.28702164 C-12.69426566 36.32109959 -12.69657219 31.35573351 -12.68049431 26.38977432 C-12.67867465 24.56644481 -12.68541696 22.74308382 -12.70131302 20.91982269 C-12.72168538 18.43157317 -12.71127563 15.9452851 -12.69309998 13.45706177 C-12.70629994 12.73439216 -12.71949991 12.01172255 -12.73309988 11.26715386 C-12.66879677 7.41683004 -12.16535326 5.77273494 -9.7456913 2.71580601 C-6.31096977 0.07219569 -4.30789935 0.02411303 0 0 Z M7.92163086 21.6628418 C7.92163086 74.1328418 7.92163086 126.6028418 7.92163086 180.6628418 C37.4259607 183.41725127 37.4259607 183.41725127 64.92163086 177.6628418 C69.01521156 171.37771547 68.34456369 164.41171356 68.30981445 157.12768555 C68.31388442 155.75871361 68.31922869 154.38974495 68.32574463 153.02078247 C68.33937362 149.31828315 68.33413801 145.61603576 68.32460737 141.91353226 C68.31698777 138.03040155 68.32406276 134.14729175 68.32876587 130.26416016 C68.33421674 123.74434556 68.3270494 117.22463306 68.31274414 110.70483398 C68.29641886 103.1776826 68.30170785 95.65077504 68.31822336 88.12362957 C68.33185732 81.6495261 68.33374857 75.17549583 68.32590735 68.70138264 C68.32124131 64.83968932 68.32057643 60.97811043 68.33051682 57.11642456 C68.33921211 53.48508217 68.33311823 49.85405274 68.31583405 46.22274399 C68.31000484 44.26203588 68.31886285 42.30130116 68.32821655 40.34060669 C68.2831309 34.06505922 68.18604941 29.11725568 64.92163086 23.6628418 C49.10294668 13.11705234 26.93332317 21.6628418 7.92163086 21.6628418 Z M87.92163086 41.6628418 C87.92163086 80.9328418 87.92163086 120.2028418 87.92163086 160.6628418 C93.56186846 162.27433825 99.16095102 163.65625532 104.90209961 164.8112793 C118.60159082 167.84418729 130.46286417 174.35771006 142.29663086 181.6003418 C143.68952154 182.44087998 145.08308776 183.28029962 146.47729492 184.11865234 C149.96921269 186.22143025 153.4538695 188.33587609 156.93591309 190.45495605 C161.11669977 192.99807305 165.3040223 195.53031434 169.49438477 198.05761719 C171.53370742 199.2885131 173.57011207 200.52426398 175.6027832 201.76611328 C187.30601571 208.85308207 198.75856601 214.02404691 211.92163086 217.6628418 C213.19586914 218.01862305 213.19586914 218.01862305 214.49584961 218.3815918 C226.58274165 221.25038293 239.43549308 221.20492423 251.67163086 219.5378418 C252.47318604 219.43318604 253.27474121 219.32853027 254.10058594 219.22070312 C269.16004954 216.87744756 283.02218535 210.17165802 296.79663086 203.9753418 C298.69129024 203.12956384 300.58631746 202.28460947 302.48168945 201.44042969 C306.38262324 199.70273876 310.28235191 197.96238432 314.18139648 196.22045898 C322.11233337 192.68177938 330.06496855 189.19280887 338.01953125 185.7076416 C340.56211251 184.5935582 343.104245 183.47845694 345.64624023 182.36303711 C351.58490908 179.75723669 357.52414486 177.15272964 363.46337891 174.54821777 C380.01779484 167.28847127 396.57152937 160.02723746 413.10913086 152.72924805 C414.03845932 152.31917007 414.96778778 151.9090921 415.92527771 151.48658752 C420.53155426 149.45309637 425.13628728 147.4162127 429.73828125 145.37304688 C444.4197685 138.8579355 444.4197685 138.8579355 451.41253662 135.89535522 C453.35030639 135.07422285 455.28503959 134.24633167 457.21899414 133.41625977 C459.46737751 132.45463004 461.72180589 131.50693778 463.98364258 130.57739258 C469.99887259 127.98638464 474.40938325 125.32628836 477.92163086 119.6628418 C479.67967081 114.38872195 479.96001873 108.59361878 478.08569336 103.3034668 C475.65289878 98.960357 472.78801227 96.48240808 468.37475586 94.2565918 C459.38039757 92.07961336 451.77965179 94.99256112 443.33569336 97.94799805 C442.00820079 98.40171582 440.68029911 98.85423809 439.35202026 99.3056488 C435.80978096 100.51330579 432.27357963 101.73778466 428.7383728 102.96585083 C425.06775227 104.23780857 421.39183102 105.4942647 417.71655273 106.75268555 C409.76440141 109.47900226 401.82033373 112.22833252 393.87837219 114.98416901 C390.89822106 116.01779949 387.91721784 117.04896522 384.9362793 118.08032227 C373.65110588 121.98711662 362.37527499 125.91982448 351.11254883 129.89086914 C348.83717345 130.69260047 346.56108858 131.49229416 344.28491211 132.29174805 C342.77838335 132.82164381 341.27187227 133.35158984 339.76538086 133.8815918 C339.09253052 134.11769165 338.41968018 134.3537915 337.72644043 134.5970459 C337.08122437 134.82436401 336.4360083 135.05168213 335.77124023 135.28588867 C335.13597412 135.50881592 334.50070801 135.73174316 333.84619141 135.96142578 C332.53401523 136.43965516 331.23077755 136.94297258 329.93652344 137.46777344 C329.27483154 137.73388428 328.61313965 137.99999512 327.93139648 138.27416992 C327.35248657 138.51590942 326.77357666 138.75764893 326.17712402 139.00671387 C319.43829239 140.96705483 312.40827623 140.81143968 305.45410156 140.80810547 C303.92820908 140.81314339 303.92820908 140.81314339 302.37149048 140.81828308 C299.0301184 140.82773387 295.68879669 140.82973278 292.34741211 140.83081055 C290.01669799 140.8340256 287.68598408 140.83738986 285.35527039 140.84089661 C280.48082002 140.846872 275.60638736 140.84873798 270.73193359 140.84814453 C264.48413927 140.84804263 258.23645788 140.86173085 251.98869038 140.87891674 C247.18032813 140.8900257 242.37199338 140.89206413 237.56361961 140.89153481 C235.25951941 140.8927152 232.9554185 140.89714029 230.65133095 140.90486717 C227.43446486 140.91465101 224.21784654 140.91179601 221.00097656 140.90576172 C220.04969376 140.91138123 219.09841095 140.91700073 218.11830139 140.92279053 C212.71457112 140.89699862 208.3201619 140.81324894 204.10913086 137.0378418 C202.42223246 133.664045 201.89753125 130.28087793 202.92163086 126.6628418 C204.9604701 123.86755898 206.59419398 121.9445977 210.07736778 121.20527458 C212.81118445 121.0345695 215.50568922 121.02506151 218.24462891 121.06689453 C219.28268173 121.062836 220.32073456 121.05877747 221.39024353 121.05459595 C223.64209184 121.04907987 225.8939912 121.05508389 228.14578819 121.07125664 C231.71562624 121.09666528 235.28430874 121.0918803 238.85420227 121.07936096 C246.43930506 121.05859846 254.02405157 121.07828692 261.60913086 121.1003418 C270.38351213 121.12147115 279.15752068 121.12593703 287.9318943 121.09984016 C291.43839967 121.09649043 294.94418676 121.11766933 298.4506073 121.14024353 C300.61762648 121.13773046 302.78464478 121.13416863 304.95166016 121.12939453 C305.91773193 121.14228012 306.88380371 121.15516571 307.87915039 121.16844177 C314.87631311 121.11731898 322.1274312 119.9783567 327.57799816 115.21544552 C332.41143879 109.63027487 333.49582415 105.02629533 333.36303711 97.77612305 C332.46640049 91.45205772 329.18456183 87.46601605 324.30200195 83.57543945 C318.1672937 80.17219763 310.65859792 81.1004257 303.83959961 81.1237793 C302.25928902 81.11385864 300.67898998 81.10191221 299.09870911 81.08804321 C294.94822258 81.05576165 290.79799959 81.04529804 286.6473999 81.04119873 C280.01644828 81.03242911 273.38571259 80.99658939 266.75493813 80.9490242 C264.4540691 80.93656081 262.15348034 80.93718681 259.85258484 80.93930054 C248.49229432 80.90911813 239.13586737 79.88573077 229.10913086 74.2878418 C228.30000244 73.84939941 227.49087402 73.41095703 226.65722656 72.95922852 C219.71282213 69.1706457 212.85476976 65.22632803 205.99536133 61.28662109 C199.43079922 57.51699859 192.85198265 53.77573862 186.23413086 50.1003418 C185.35007568 49.59970215 184.46602051 49.0990625 183.55517578 48.58325195 C182.27670776 47.87821533 182.27670776 47.87821533 180.97241211 47.15893555 C180.23676025 46.74828857 179.5011084 46.3376416 178.74316406 45.91455078 C168.50298267 41.37172739 158.89904576 41.2636107 147.88256836 41.36987305 C146.34391608 41.374293 144.80525927 41.37734792 143.26660156 41.37902832 C137.60987513 41.39465153 131.95324575 41.43653513 126.29663086 41.4753418 C113.63288086 41.5372168 100.96913086 41.5990918 87.92163086 41.6628418 Z " fill="#000000" transform="translate(12.078369140625,246.337158203125)"/>
<path d="M0 0 C9.4272018 6.68840385 16.33155902 14.61526356 23 24 C23.99613414 25.33622399 24.9943723 26.67090606 26 28 C26.42410156 27.29875 26.84820312 26.5975 27.28515625 25.875 C38.63177671 7.52090624 53.90385482 -4.81812299 75.0090332 -10.38916016 C80.0874084 -11.42630772 85.08170796 -11.48867913 90.25 -11.4375 C91.89524658 -11.42396484 91.89524658 -11.42396484 93.57373047 -11.41015625 C112.50764163 -11.00784207 128.95417257 -4.15481086 142.35546875 9.23046875 C159.51852934 27.20478183 166.59819092 48.7875415 166.2109375 73.4921875 C165.22645201 101.82349224 149.38791497 125.20638886 130.59765625 145.21484375 C128.27707802 147.70292237 126.03741665 150.23925981 123.8125 152.8125 C120.78011725 156.24550242 117.56068144 159.23343565 114.06640625 162.1875 C111.77240825 164.19962679 109.64092914 166.3260205 107.5 168.5 C103.49274998 172.5480709 99.33574295 176.30954321 95 180 C93.97103651 180.8811396 92.94241879 181.76268307 91.9140625 182.64453125 C90.15122881 184.15603725 88.38814608 185.66724451 86.62402344 187.17724609 C79.72206959 193.08670262 72.86139635 199.04355855 66 205 C61.62533965 208.79768299 57.24863104 212.59295627 52.8671875 216.3828125 C51.60295804 217.47777275 50.33997234 218.5741704 49.078125 219.671875 C47.2005819 221.30518485 45.3193782 222.9341886 43.4375 224.5625 C42.87796631 225.05113525 42.31843262 225.53977051 41.74194336 226.04321289 C31.29924715 235.05139502 31.29924715 235.05139502 24.46484375 234.6875 C19.61117472 233.33370325 16.22482659 229.80281363 12.58789062 226.45068359 C10.28086905 224.34300798 7.90869135 222.31356224 5.54052734 220.27514648 C3.61254942 218.61427435 1.69235707 216.9447624 -0.2265625 215.2734375 C-7.51207235 208.94096317 -14.87831628 202.7063806 -22.375 196.625 C-32.10482509 188.69909869 -41.52385617 180.39261481 -50.8203125 171.96484375 C-52.7983952 170.18173336 -54.798558 168.42985231 -56.8125 166.6875 C-93.94121172 134.18123833 -93.94121172 134.18123833 -94.75 122.1875 C-94.45172178 118.88304526 -93.90557614 117.86265621 -91.9375 115 C-88.40055558 112.59186763 -86.27436594 112 -82 112 C-77.20423132 113.90813077 -74.66631262 116.17233058 -71.5625 120.25 C-68.39790041 124.28832742 -65.16696713 127.96784217 -61.4765625 131.5234375 C-60 133 -60 133 -58.0625 135.5 C-55.78682102 138.25839877 -53.30919723 140.40743352 -50.59375 142.72265625 C-47.21264405 145.69130801 -43.95871115 148.78634142 -40.6875 151.875 C-35.46303475 156.79069987 -30.14779638 161.4468865 -24.54296875 165.92578125 C-21.94988653 168.04087596 -19.472151 170.24518096 -17 172.5 C-12.77986056 176.34191939 -8.41972816 179.96115221 -3.984375 183.55078125 C-0.61238172 186.31811081 2.69653734 189.15159931 6 192 C16.16377803 200.93734582 16.16377803 200.93734582 27 209 C27.84820312 208.27296875 28.69640625 207.5459375 29.5703125 206.796875 C58.5 182 58.5 182 60.24975586 180.50048828 C61.41760401 179.4992894 62.585084 178.49766092 63.75219727 177.49560547 C66.6479381 175.01031319 69.54946611 172.53255246 72.46484375 170.0703125 C79.39292715 164.20351519 86.12311095 158.17226061 92.72827148 151.94335938 C96.09657792 148.76713468 99.49922619 145.65623029 103 142.625 C106.33294052 139.68928144 109.25922928 136.58447526 112.12109375 133.19140625 C114.34303139 130.59991557 116.67200793 128.12153448 119 125.625 C134.47565372 108.60412216 144.72081411 88.93700889 144.23828125 65.59765625 C143.14952443 49.15921307 136.54359862 33.01637476 124 22 C113.16666213 13.56500651 100.487029 9.18364445 86.73828125 10.25390625 C72.40649959 12.10155754 60.29869889 18.88082648 51 30 C45.10216138 37.92170698 40.79190462 46.04168298 37.38256836 55.31420898 C35.85604483 59.37774461 34.48515335 62.33292654 31 65 C27.18704863 66.3872169 23.93657633 66.37463053 20.1875 64.875 C16.12476468 61.39265544 14.56577559 57.02837052 12.875 52.0625 C6.91922757 36.34637215 -3.64729216 22.45435891 -19 15 C-32.04140165 9.18095278 -44.6056289 8.70893795 -58.125 13.6875 C-73.96786493 20.66866487 -83.27070778 31.45052376 -89.625 47.375 C-89.98851562 48.35210937 -90.35203125 49.32921875 -90.7265625 50.3359375 C-92.120794 53.25270402 -93.51686932 54.94483313 -96 57 C-99.97406549 58.10390708 -102.30015128 58.21533807 -106.25 57 C-108.98705758 55.00941267 -110.58936096 53.42776264 -111.7109375 50.19140625 C-113.26073162 38.44229136 -103.97317769 24.57069257 -97.125 15.625 C-72.86642819 -12.77069259 -31.89902297 -20.73822679 0 0 Z " fill="#000000" transform="translate(271,36)"/>
<path d="M0 0 C3.125 1.875 3.125 1.875 5 5 C5.68455021 8.47979689 5.708039 11.52261493 5 15 C2.63095184 18.41421647 1.02503506 19.64346607 -2.875 21 C-6.90306262 21 -9.47273862 19.89929459 -13 18 C-15.83953044 13.74070434 -15.73987876 9.99617057 -15 5 C-11.44839796 -0.91933673 -6.34520697 -1.24823744 0 0 Z " fill="#000000" transform="translate(55,287)"/>
<path d="M0 0 C3.125 1.875 3.125 1.875 5 5 C5.68455021 8.47979689 5.708039 11.52261493 5 15 C2.63095184 18.41421647 1.02503506 19.64346607 -2.875 21 C-6.90306262 21 -9.47273862 19.89929459 -13 18 C-15.83953044 13.74070434 -15.73987876 9.99617057 -15 5 C-11.44839796 -0.91933673 -6.34520697 -1.24823744 0 0 Z " fill="#000000" transform="translate(174,113)"/>
</svg>
